<svg width="28" height="28" viewBox="0 0 28 28" fill="none" xmlns="http://www.w3.org/2000/svg">
<path d="M22.1667 2.33334L16.3333 7.58334V20.4167L22.1667 15.1667V2.33334ZM7.58333 5.83334C5.30833 5.83334 2.85833 6.30001 1.16666 7.58334V24.6867C1.16666 24.9783 1.45833 25.27 1.75 25.27C1.86666 25.27 1.925 25.1883 2.04166 25.1883C3.61666 24.43 5.89166 23.9167 7.58333 23.9167C9.85833 23.9167 12.3083 24.3833 14 25.6667C15.575 24.675 18.4333 23.9167 20.4167 23.9167C22.3417 23.9167 24.325 24.2783 25.9583 25.1533C26.075 25.2117 26.1333 25.1883 26.25 25.1883C26.5417 25.1883 26.8333 24.8967 26.8333 24.605V7.58334C26.1333 7.05834 25.375 6.70834 24.5 6.41668V22.1667C23.2167 21.7583 21.8167 21.5833 20.4167 21.5833C18.4333 21.5833 15.575 22.3417 14 23.3333V7.58334C12.3083 6.30001 9.85833 5.83334 7.58333 5.83334Z" fill="#193E61"/>
</svg>
