<svg width="28" height="28" viewBox="0 0 28 28" fill="none" xmlns="http://www.w3.org/2000/svg">
<path d="M18.0833 14C21 14 23.3333 16.3333 23.3333 19.25C23.3333 20.2767 23.0417 21.245 22.5283 22.05L26.1217 25.6667L24.5 27.2883L20.86 23.7067C20.055 24.2083 19.0983 24.5 18.0833 24.5C15.1667 24.5 12.8333 22.1667 12.8333 19.25C12.8333 16.3333 15.1667 14 18.0833 14ZM18.0833 16.3333C17.3098 16.3333 16.5679 16.6406 16.0209 17.1876C15.474 17.7346 15.1667 18.4764 15.1667 19.25C15.1667 20.0235 15.474 20.7654 16.0209 21.3124C16.5679 21.8594 17.3098 22.1667 18.0833 22.1667C18.8569 22.1667 19.5987 21.8594 20.1457 21.3124C20.6927 20.7654 21 20.0235 21 19.25C21 18.4764 20.6927 17.7346 20.1457 17.1876C19.5987 16.6406 18.8569 16.3333 18.0833 16.3333ZM11.6667 4.66666C12.9043 4.66666 14.0913 5.15832 14.9665 6.03349C15.8417 6.90866 16.3333 8.09565 16.3333 9.33332C16.3333 10.395 15.9717 11.375 15.3767 12.1683C14.3733 12.5417 13.475 13.1367 12.7283 13.8833L11.6667 14C10.429 14 9.242 13.5083 8.36683 12.6332C7.49166 11.758 7 10.571 7 9.33332C7 8.09565 7.49166 6.90866 8.36683 6.03349C9.242 5.15832 10.429 4.66666 11.6667 4.66666ZM2.33333 23.3333V21C2.33333 18.5267 6.195 16.4967 11.0833 16.3333C10.71 17.2433 10.5 18.2233 10.5 19.25C10.5 20.755 10.9433 22.1667 11.6667 23.3333H2.33333Z" fill="#193E61"/>
</svg>
