<svg width="28" height="28" viewBox="0 0 28 28" fill="none" xmlns="http://www.w3.org/2000/svg">
<path d="M17.5 16.3333C14.385 16.3333 8.16667 17.885 8.16667 21V23.3333H26.8333V21C26.8333 17.885 20.615 16.3333 17.5 16.3333ZM17.5 14C18.7377 14 19.9247 13.5083 20.7998 12.6332C21.675 11.758 22.1667 10.571 22.1667 9.33332C22.1667 8.09565 21.675 6.90866 20.7998 6.03349C19.9247 5.15832 18.7377 4.66666 17.5 4.66666C16.2623 4.66666 15.0753 5.15832 14.2002 6.03349C13.325 6.90866 12.8333 8.09565 12.8333 9.33332C12.8333 10.571 13.325 11.758 14.2002 12.6332C15.0753 13.5083 16.2623 14 17.5 14ZM5.83334 15.4933L8.69167 17.2317L7.93334 13.9533L10.5 11.76L7.12834 11.4683L5.83334 8.38832L4.515 11.4683L1.16667 11.76L3.71001 13.9533L2.91667 17.2317L5.83334 15.4933Z" fill="#193E61"/>
</svg>
