<svg width="28" height="28" viewBox="0 0 28 28" fill="none" xmlns="http://www.w3.org/2000/svg">
<path d="M21 3.50001C21.6188 3.50001 22.2123 3.74584 22.6499 4.18343C23.0875 4.62101 23.3333 5.2145 23.3333 5.83334C23.3333 6.77834 22.75 7.58334 21.9683 7.95668L19.8333 15.3417V21H8.16666V15.3417L6.03166 7.95668C5.25 7.58334 4.66666 6.77834 4.66666 5.83334C4.66666 5.2145 4.9125 4.62101 5.35008 4.18343C5.78767 3.74584 6.38116 3.50001 7 3.50001C7.61884 3.50001 8.21233 3.74584 8.64991 4.18343C9.0875 4.62101 9.33333 5.2145 9.33333 5.83334C9.33333 6.41668 9.12333 6.94168 8.75 7.35001L12.0167 10.9083L12.635 6.55668C12.0517 6.13668 11.6667 5.44834 11.6667 4.66668C11.6667 4.04784 11.9125 3.45435 12.3501 3.01676C12.7877 2.57918 13.3812 2.33334 14 2.33334C14.6188 2.33334 15.2123 2.57918 15.6499 3.01676C16.0875 3.45435 16.3333 4.04784 16.3333 4.66668C16.3333 5.44834 15.9483 6.13668 15.365 6.55668L15.9833 10.9083L19.215 7.33834C18.8604 6.91709 18.6661 6.384 18.6667 5.83334C18.6667 5.2145 18.9125 4.62101 19.3501 4.18343C19.7877 3.74584 20.3812 3.50001 21 3.50001ZM5.83333 21H14H22.1667V24.5H5.83333V21Z" fill="#193E61"/>
</svg>
