<svg width="28" height="28" viewBox="0 0 28 28" fill="none" xmlns="http://www.w3.org/2000/svg">
<path d="M18.0833 14C20.9999 14 23.3333 16.3333 23.3333 19.25C23.3333 20.2766 23.0416 21.245 22.5283 22.05L26.1216 25.6666L24.4999 27.2883L20.8599 23.7066C20.0549 24.2083 19.0983 24.5 18.0833 24.5C15.1666 24.5 12.8333 22.1666 12.8333 19.25C12.8333 16.3333 15.1666 14 18.0833 14ZM18.0833 16.3333C17.3097 16.3333 16.5678 16.6406 16.0209 17.1876C15.4739 17.7345 15.1666 18.4764 15.1666 19.25C15.1666 20.0235 15.4739 20.7654 16.0209 21.3124C16.5678 21.8593 17.3097 22.1666 18.0833 22.1666C18.8568 22.1666 19.5987 21.8593 20.1456 21.3124C20.6926 20.7654 20.9999 20.0235 20.9999 19.25C20.9999 18.4764 20.6926 17.7345 20.1456 17.1876C19.5987 16.6406 18.8568 16.3333 18.0833 16.3333ZM11.6666 4.66663C12.9043 4.66663 14.0912 5.15829 14.9664 6.03346C15.8416 6.90863 16.3333 8.09562 16.3333 9.33329C16.3333 10.395 15.9716 11.375 15.3766 12.1683C14.3733 12.5416 13.4749 13.1366 12.7283 13.8833L11.6666 14C10.4289 14 9.24192 13.5083 8.36675 12.6331C7.49158 11.758 6.99992 10.571 6.99992 9.33329C6.99992 8.09562 7.49158 6.90863 8.36675 6.03346C9.24192 5.15829 10.4289 4.66663 11.6666 4.66663ZM2.33325 23.3333V21C2.33325 18.5266 6.19492 16.4966 11.0833 16.3333C10.7099 17.2433 10.4999 18.2233 10.4999 19.25C10.4999 20.755 10.9433 22.1666 11.6666 23.3333H2.33325Z" fill="#193E61"/>
</svg>
