<svg width="24" height="24" viewBox="0 0 24 24" fill="none" xmlns="http://www.w3.org/2000/svg">
<path d="M6 8C6 5.79 7.79 4 10 4C12.21 4 14 5.79 14 8C14 10.21 12.21 12 10 12C7.79 12 6 10.21 6 8ZM9.14 19.75L8.85 19L9.14 18.25C9.84 16.5 11.08 15.14 12.61 14.22C11.79 14.08 10.92 14 10 14C5.58 14 2 15.79 2 18V20H9.27C9.23 19.91 9.18 19.83 9.14 19.75ZM17 18C16.44 18 16 18.44 16 19C16 19.56 16.44 20 17 20C17.56 20 18 19.56 18 19C18 18.44 17.56 18 17 18ZM23 19C22.06 21.34 19.73 23 17 23C14.27 23 11.94 21.34 11 19C11.94 16.66 14.27 15 17 15C19.73 15 22.06 16.66 23 19ZM19.5 19C19.5 18.337 19.2366 17.7011 18.7678 17.2322C18.2989 16.7634 17.663 16.5 17 16.5C16.337 16.5 15.7011 16.7634 15.2322 17.2322C14.7634 17.7011 14.5 18.337 14.5 19C14.5 19.663 14.7634 20.2989 15.2322 20.7678C15.7011 21.2366 16.337 21.5 17 21.5C17.663 21.5 18.2989 21.2366 18.7678 20.7678C19.2366 20.2989 19.5 19.663 19.5 19Z" fill="#193E61"/>
</svg>
